<svg width="62" height="23" viewBox="0 0 62 23" fill="none" xmlns="http://www.w3.org/2000/svg">
<path d="M44.3752 0.0179977H39.4182C37.9828 0.0187926 36.6065 0.589347 35.5915 1.60431C34.5765 2.61927 34.006 3.99563 34.0052 5.431V16.764C34.006 18.1994 34.5765 19.5757 35.5915 20.5907C36.6065 21.6057 37.9828 22.1762 39.4182 22.177H44.3752C44.5051 22.177 44.6298 22.1254 44.7217 22.0335C44.8136 21.9416 44.8652 21.817 44.8652 21.687V19.34C44.8652 19.2101 44.8136 19.0854 44.7217 18.9935C44.6298 18.9016 44.5051 18.85 44.3752 18.85H39.4182C38.8655 18.849 38.3358 18.6289 37.945 18.2382C37.5543 17.8474 37.3342 17.3177 37.3332 16.765V5.431C37.3342 4.87835 37.5543 4.34863 37.945 3.95785C38.3358 3.56706 38.8655 3.34706 39.4182 3.346H44.3752C44.5051 3.346 44.6298 3.29437 44.7217 3.20248C44.8136 3.11059 44.8652 2.98596 44.8652 2.856V0.507999C44.8593 0.379927 44.8058 0.258666 44.7152 0.168011C44.6245 0.0773556 44.5033 0.0238503 44.3752 0.0179977ZM4.50619 14.679L6.17019 4.151L7.13319 10.264L7.83319 14.678L4.50619 14.679ZM8.97319 0.434998C8.95301 0.323797 8.89478 0.223078 8.80849 0.150101C8.72219 0.077123 8.6132 0.0364324 8.50019 0.0349998H3.84119C3.72748 0.0338463 3.61714 0.0736105 3.53031 0.147041C3.44348 0.220472 3.38594 0.322673 3.36819 0.434998L0.00519237 21.595C-0.00467643 21.663 -0.000446659 21.7322 0.0176181 21.7984C0.0356829 21.8647 0.0671955 21.9265 0.110192 21.98C0.155514 22.0337 0.211796 22.0771 0.275266 22.1073C0.338735 22.1375 0.407923 22.1538 0.478192 22.155H2.89519C3.00896 22.1564 3.11941 22.1167 3.20628 22.0432C3.29316 21.9697 3.35064 21.8674 3.36819 21.755L3.96819 18.041H8.36819L8.96819 21.755C8.98837 21.8662 9.0466 21.9669 9.1329 22.0399C9.21919 22.1129 9.32818 22.1536 9.44119 22.155H11.8582C11.9285 22.1538 11.9976 22.1375 12.0611 22.1073C12.1246 22.0771 12.1809 22.0337 12.2262 21.98C12.2727 21.9286 12.3065 21.867 12.3247 21.8001C12.343 21.7332 12.3452 21.6629 12.3312 21.595L8.97319 0.434998ZM57.9182 17.447C57.9169 17.8179 57.7689 18.1732 57.5067 18.4355C57.2444 18.6978 56.8891 18.8457 56.5182 18.847H55.1692C54.7983 18.8457 54.443 18.6978 54.1807 18.4355C53.9184 18.1732 53.7705 17.8179 53.7692 17.447V4.73C53.7705 4.3591 53.9184 4.00377 54.1807 3.7415C54.443 3.47924 54.7983 3.33132 55.1692 3.33H56.5182C56.8891 3.33132 57.2444 3.47924 57.5067 3.7415C57.7689 4.00377 57.9169 4.3591 57.9182 4.73V17.447ZM56.4962 0H55.1482C53.8939 0.000530028 52.6911 0.499039 51.8042 1.38597C50.9172 2.2729 50.4187 3.47569 50.4182 4.73V17.447C50.4187 18.7013 50.9172 19.9041 51.8042 20.791C52.6911 21.678 53.8939 22.1765 55.1482 22.177H56.4972C57.7515 22.1765 58.9543 21.678 59.8412 20.791C60.7282 19.9041 61.2267 18.7013 61.2272 17.447V4.73C61.2267 3.47569 60.7282 2.2729 59.8412 1.38597C58.9543 0.499039 57.7515 0.000530028 56.4972 0H56.4962ZM25.1062 16.764C25.1049 17.3166 24.8848 17.8461 24.4941 18.2369C24.1033 18.6276 23.5738 18.8477 23.0212 18.849H20.9362V3.349H23.0212C23.5738 3.35006 24.1036 3.57007 24.4943 3.96085C24.8851 4.35163 25.1051 4.88135 25.1062 5.434V16.764ZM23.0222 0.0349998H18.0642C17.9342 0.0349998 17.8096 0.0866236 17.7177 0.178516C17.6258 0.270409 17.5742 0.395042 17.5742 0.524998V21.703C17.5742 21.833 17.6258 21.9576 17.7177 22.0495C17.8096 22.1414 17.9342 22.193 18.0642 22.193H23.0212C24.4566 22.1922 25.8329 21.6217 26.8479 20.6067C27.8628 19.5917 28.4334 18.2154 28.4342 16.78V5.448C28.4334 4.01262 27.8628 2.63627 26.8479 1.62131C25.8329 0.606345 24.4576 0.0357947 23.0222 0.0349998Z" fill="white"/>
</svg>
