<svg width="150" height="41" viewBox="0 0 150 41" fill="none" xmlns="http://www.w3.org/2000/svg">
<g clip-path="url(#clip0)">
<path d="M55.2447 31.6722C55.1957 31.6231 55.1369 31.5848 55.0721 31.5601C55.0073 31.5353 54.938 31.5245 54.8687 31.5284C54.7995 31.5323 54.7318 31.5509 54.6702 31.5828C54.6086 31.6148 54.5545 31.6594 54.5114 31.7138C53.7775 32.5852 52.8543 33.2775 51.8122 33.7379C50.7702 34.1984 49.6367 34.4148 48.4983 34.3708C44.2539 34.3708 41.3853 31.3245 40.9091 27.1973H61.6169C61.6834 27.1968 61.7491 27.1832 61.8104 27.1573C61.8716 27.1314 61.9272 27.0937 61.9739 27.0463C62.0206 26.9989 62.0574 26.9428 62.0824 26.8812C62.1074 26.8196 62.12 26.7536 62.1195 26.6871C61.923 15.8249 55.4412 11.1799 48.3244 11.1799C40.3724 11.1799 34.5747 17.0986 34.5747 25.3454C34.5747 33.596 40.4934 39.5713 48.5021 39.5713C52.2403 39.6612 55.8651 38.2843 58.6008 35.7352C58.6473 35.6888 58.6843 35.6337 58.7094 35.5731C58.7346 35.5125 58.7476 35.4475 58.7476 35.3818C58.7476 35.3161 58.7346 35.2511 58.7094 35.1905C58.6843 35.1298 58.6473 35.0748 58.6008 35.0284L55.2447 31.6722ZM48.3773 16.3805C50.1534 16.3625 51.8702 17.0194 53.1806 18.2183C54.4911 19.4172 55.2977 21.0689 55.4374 22.8396H40.9053C41.6234 19.0148 44.3749 16.3842 48.3773 16.3842V16.3805ZM23.0964 34.9112C21.6602 37.5985 18.013 39.5713 14.071 39.5713C6.23616 39.5713 0.502686 33.5922 0.502686 25.3454C0.502686 17.0986 6.11899 11.1799 13.9501 11.1799C17.9488 11.1799 21.7207 13.2133 23.2174 15.9042C23.1569 14.0523 23.1569 11.8375 23.1569 9.74369V1.00176C23.1564 0.935923 23.1689 0.870642 23.1938 0.809677C23.2186 0.748712 23.2553 0.693267 23.3017 0.64654C23.348 0.599813 23.4032 0.562726 23.464 0.537419C23.5248 0.512111 23.5899 0.499083 23.6558 0.499084H28.5729C28.6387 0.499083 28.7039 0.512111 28.7647 0.537419C28.8254 0.562726 28.8806 0.599813 28.927 0.64654C28.9734 0.693267 29.01 0.748712 29.0349 0.809677C29.0597 0.870642 29.0723 0.935923 29.0718 1.00176V38.3581C29.0718 38.4904 29.0192 38.6173 28.9256 38.7109C28.8321 38.8045 28.7052 38.857 28.5729 38.857H23.5953C23.5295 38.8575 23.4642 38.845 23.4032 38.8201C23.3423 38.7953 23.2868 38.7586 23.2401 38.7122C23.1934 38.6659 23.1563 38.6107 23.131 38.5499C23.1057 38.4891 23.0926 38.424 23.0926 38.3581L23.0964 34.9112ZM6.59521 25.3492C6.59521 30.4893 10.0043 34.4313 14.963 34.4313C19.865 34.4313 23.3307 30.4855 23.3307 25.3454C23.3307 20.2053 19.865 16.32 14.963 16.32C10.0043 16.32 6.59899 20.2053 6.59899 25.3454L6.59521 25.3492ZM98.8145 29.0531V12.3931C98.8145 12.3273 98.8275 12.2621 98.8528 12.2013C98.8781 12.1405 98.9152 12.0854 98.962 12.039C99.0087 11.9926 99.0641 11.9559 99.1251 11.9311C99.1861 11.9063 99.2513 11.8937 99.3172 11.8942H104.295C104.361 11.8937 104.426 11.9063 104.487 11.9311C104.548 11.9559 104.603 11.9926 104.65 12.039C104.697 12.0854 104.734 12.1405 104.759 12.2013C104.784 12.2621 104.797 12.3273 104.797 12.3931V28.2745C104.797 32.5188 107.602 34.435 111.132 34.435C114.658 34.435 117.466 32.5188 117.466 28.2745V12.3969C117.466 12.2646 117.519 12.1377 117.612 12.0441C117.706 11.9506 117.833 11.898 117.965 11.898H122.886C123.018 11.898 123.145 11.9506 123.239 12.0441C123.332 12.1377 123.385 12.2646 123.385 12.3969V29.0568C123.385 34.7374 118.902 39.5751 111.132 39.5751C103.361 39.5751 98.8183 34.7374 98.8183 29.0568L98.8145 29.0531ZM143.148 31.3207C143.148 29.4083 141.594 28.6902 138.129 27.4959L136.571 26.9592C131.911 25.3454 128.922 23.312 128.922 19.0072C128.922 14.5247 133.106 11.1799 139.021 11.1799C142.621 11.1148 146.131 12.3145 148.938 14.5701C149.038 14.6552 149.1 14.7756 149.113 14.906C149.126 15.0364 149.087 15.1666 149.006 15.2693L146.375 18.6292C146.295 18.7317 146.177 18.7986 146.048 18.8156C145.919 18.8325 145.788 18.7982 145.684 18.72C143.815 17.1798 141.503 16.2756 139.085 16.1386C136.874 16.1386 135.086 17.159 135.086 18.7086C135.086 20.1448 136.039 20.742 138.431 21.581L141.598 22.7149C146.98 24.6273 149.308 27.2578 149.308 31.264C149.308 35.0889 145.903 39.5713 138.371 39.5713C134.569 39.6083 130.873 38.3216 127.916 35.9317C127.817 35.8496 127.753 35.7328 127.737 35.605C127.721 35.4772 127.754 35.3481 127.83 35.2438L130.415 31.6836C130.455 31.6298 130.505 31.5846 130.562 31.5506C130.62 31.5167 130.684 31.4946 130.75 31.4858C130.816 31.477 130.884 31.4816 130.948 31.4993C131.013 31.5171 131.073 31.5476 131.125 31.5891C133.177 33.3102 135.704 34.365 138.371 34.6127C141.715 34.6089 143.152 32.9875 143.152 31.3207H143.148ZM93.0432 34.6278C93.0897 34.6741 93.1267 34.7292 93.1518 34.7898C93.177 34.8505 93.19 34.9155 93.19 34.9812C93.19 35.0468 93.177 35.1118 93.1518 35.1725C93.1267 35.2331 93.0897 35.2882 93.0432 35.3345L89.5208 38.857C89.4744 38.9035 89.4193 38.9404 89.3587 38.9656C89.2981 38.9908 89.233 39.0038 89.1674 39.0038C89.1017 39.0038 89.0367 38.9908 88.9761 38.9656C88.9154 38.9404 88.8604 38.9035 88.814 38.857L80.7032 30.7463C80.5848 30.6398 80.4918 30.5081 80.431 30.361C80.3702 30.2138 80.3431 30.0549 80.3517 29.8959V20.8554C80.3425 20.6957 80.3693 20.5361 80.4302 20.3882C80.491 20.2404 80.5843 20.1081 80.7032 20.0012L88.814 11.8942C88.8604 11.8477 88.9154 11.8108 88.9761 11.7856C89.0367 11.7604 89.1017 11.7475 89.1674 11.7475C89.233 11.7475 89.2981 11.7604 89.3587 11.7856C89.4193 11.8108 89.4744 11.8477 89.5208 11.8942L93.0432 15.4167C93.136 15.5101 93.1881 15.6365 93.1881 15.7682C93.1881 15.8999 93.136 16.0262 93.0432 16.1197L85.5788 23.5841C85.4541 23.6864 85.3568 23.8179 85.2955 23.967C85.2341 24.116 85.2107 24.278 85.2273 24.4383V26.3167C85.2111 26.4774 85.2352 26.6395 85.2972 26.7886C85.3592 26.9377 85.4572 27.069 85.5825 27.1709L93.0432 34.6278ZM73.0422 27.1671C73.1663 27.0652 73.2633 26.9343 73.3246 26.786C73.3859 26.6376 73.4097 26.4764 73.3937 26.3167V24.4345C73.4103 24.2742 73.3869 24.1123 73.3255 23.9632C73.2642 23.8141 73.1669 23.6826 73.0422 23.5804L65.574 16.1197C65.5275 16.0733 65.4906 16.0183 65.4654 15.9576C65.4402 15.897 65.4272 15.832 65.4272 15.7663C65.4272 15.7006 65.4402 15.6356 65.4654 15.575C65.4906 15.5143 65.5275 15.4593 65.574 15.4129L69.1002 11.8942C69.1466 11.8477 69.2017 11.8108 69.2623 11.7856C69.3229 11.7604 69.388 11.7475 69.4536 11.7475C69.5193 11.7475 69.5843 11.7604 69.6449 11.7856C69.7056 11.8108 69.7606 11.8477 69.807 11.8942L77.914 20.005C78.0331 20.1111 78.1268 20.2426 78.1883 20.3898C78.2498 20.537 78.2774 20.6961 78.2693 20.8554V29.8959C78.2785 30.0555 78.2517 30.2152 78.1908 30.363C78.13 30.5109 78.0367 30.6431 77.9178 30.75L69.807 38.8532C69.7606 38.8998 69.7056 38.9367 69.6449 38.9618C69.5843 38.987 69.5193 39 69.4536 39C69.388 39 69.3229 38.987 69.2623 38.9618C69.2017 38.9367 69.1466 38.8998 69.1002 38.8532L65.5778 35.3308C65.5313 35.2844 65.4943 35.2293 65.4692 35.1687C65.444 35.1081 65.431 35.043 65.431 34.9774C65.431 34.9117 65.444 34.8467 65.4692 34.7861C65.4943 34.7254 65.5313 34.6704 65.5778 34.624L73.0422 27.1671Z" fill="white"/>
</g>
<defs>
<clipPath id="clip0">
<rect width="149.811" height="40.078" fill="white"/>
</clipPath>
</defs>
</svg>
