<svg fill="white" xmlns="http://www.w3.org/2000/svg" viewBox="0 0 139 18"><path fill-rule="evenodd" clip-rule="evenodd" d="M38.526 9.134c0-2.766 2.13-4.898 4.804-4.898 2.676 0 4.823 2.132 4.823 4.898 0 2.763-2.147 4.897-4.823 4.897-2.674 0-4.804-2.134-4.804-4.897zm7.279 0c0-1.504-1.073-2.562-2.475-2.562-1.383 0-2.456 1.058-2.456 2.562 0 1.501 1.073 2.56 2.456 2.56 1.402 0 2.475-1.059 2.475-2.56zm12.138-1.058v5.695h-2.347V8.373c0-1.261-.746-1.911-1.802-1.911-1.145 0-2 .687-2 2.3v5.01h-2.349V4.496h2.348v1.04c.545-.836 1.492-1.3 2.712-1.3 1.928 0 3.438 1.372 3.438 3.84" fill="#fff"/><mask id="a" maskUnits="userSpaceOnUse" x="59" y="4" width="10" height="14"><path d="M59.109 4.236h9.735v13.505h-9.735V4.236z" fill="#fff"/></mask><g mask="url(#a)"><path fill-rule="evenodd" clip-rule="evenodd" d="M68.844 4.496v8.83c0 3.042-2.347 4.416-4.749 4.416-1.948 0-3.513-.762-4.313-2.263l2.001-1.169c.383.723.983 1.298 2.385 1.298 1.474 0 2.384-.816 2.384-2.282v-1.002c-.638.872-1.62 1.41-2.912 1.41-2.584 0-4.531-2.133-4.531-4.749 0-2.596 1.947-4.75 4.531-4.75 1.293 0 2.274.54 2.912 1.41v-1.15h2.292v.001zm-2.292 4.49c0-1.467-1.075-2.524-2.548-2.524-1.475 0-2.547 1.057-2.547 2.523 0 1.484 1.072 2.541 2.547 2.541 1.473 0 2.548-1.057 2.548-2.54z" fill="#fff"/></g><path fill-rule="evenodd" clip-rule="evenodd" d="M85.985 11.656l1.31 1.391-1.782 1.614-1.384-1.466c-.977.553-2.08.84-3.203.835-3.657 0-6.605-2.967-6.605-6.751 0-3.804 2.948-6.753 6.605-6.753 3.658 0 6.624 2.949 6.624 6.753 0 1.687-.582 3.209-1.565 4.377zm-3.638-.37l-2.094-2.227 1.784-1.614 2.238 2.375c.473-.686.764-1.558.764-2.541 0-2.505-1.82-4.267-4.113-4.267-2.292 0-4.112 1.762-4.112 4.267 0 2.485 1.82 4.248 4.112 4.248.492 0 .983-.093 1.42-.241h.001zm15.03-6.791v9.276h-2.348v-1.04c-.546.836-1.492 1.3-2.711 1.3-1.929 0-3.44-1.373-3.44-3.84V4.495h2.347v5.398c0 1.262.748 1.912 1.803 1.912 1.147 0 2.001-.687 2.001-2.301V4.495h2.348zm11.046 0v9.276h-2.348v-1.094c-.655.835-1.637 1.354-2.967 1.354-2.419 0-4.421-2.134-4.421-4.898s2.002-4.898 4.421-4.898c1.33 0 2.312.52 2.967 1.356V4.495h2.348zm-2.348 4.638c0-1.558-1.073-2.616-2.529-2.616-1.438 0-2.512 1.058-2.512 2.616s1.074 2.616 2.512 2.616c1.456 0 2.529-1.058 2.529-2.616zm9.227-4.823v2.672c-1.22-.148-2.766.408-2.766 2.355v4.434h-2.348V4.495h2.348V6.09c.474-1.261 1.619-1.78 2.766-1.78zm4.403 2.486v3.859c0 1.001.709 1.02 2.057.945v2.172c-3.294.37-4.405-.614-4.405-3.117V6.796h-1.583v-2.3h1.583V2.623l2.348-.725v2.597h2.057v2.301h-2.057zm7.625 5.065c.91 0 1.638-.39 2.039-.927l1.892 1.112c-.855 1.262-2.22 1.985-3.966 1.985-3.058 0-4.987-2.133-4.987-4.897 0-2.765 1.947-4.9 4.803-4.9 2.694 0 4.604 2.173 4.604 4.9a5.7 5.7 0 01-.09.983h-6.86c.328 1.225 1.327 1.744 2.565 1.744zm2.039-3.6c-.293-1.336-1.274-1.873-2.258-1.873-1.255 0-2.11.685-2.384 1.874l4.642-.001zm8.734-3.951v2.672c-1.22-.148-2.766.408-2.766 2.355v4.434h-2.348V4.495h2.348V6.09c.474-1.261 1.619-1.78 2.766-1.78zM13.134 7.811c0 3.74-2.612 6.22-6.284 6.22-4.001 0-6.85-3.018-6.85-6.72C0 3.553 2.886.555 6.703.555c2.43 0 4.493 1.24 5.572 3.017l-2.155 1.26c-.584-1.038-1.882-1.796-3.434-1.796-2.43 0-4.183 1.814-4.183 4.274 0 2.408 1.698 4.222 4.365 4.222 2.009 0 3.288-.982 3.727-2.462H6.722V6.812h6.412v.999zm5.883 4.054c.913 0 1.643-.388 2.046-.925l1.9 1.11c-.86 1.26-2.23 1.98-3.982 1.98-3.07 0-5.006-2.128-5.006-4.885 0-2.76 1.955-4.889 4.821-4.889 2.705 0 4.622 2.167 4.622 4.889 0 .351-.036.665-.09.98h-6.887c.33 1.223 1.333 1.74 2.576 1.74zm2.046-3.59c-.294-1.334-1.279-1.87-2.267-1.87-1.26 0-2.117.684-2.392 1.87h4.659zm8.128 3.59c.913 0 1.645-.388 2.046-.925l1.9 1.11c-.86 1.26-2.23 1.98-3.982 1.98-3.07 0-5.006-2.128-5.006-4.885 0-2.76 1.955-4.889 4.823-4.889 2.703 0 4.62 2.167 4.62 4.889 0 .351-.034.665-.09.98h-6.887c.33 1.223 1.335 1.74 2.576 1.74zm2.046-3.59c-.292-1.334-1.279-1.87-2.265-1.87-1.26 0-2.12.684-2.393 1.87h4.658zM34.482 14h2.5V.26h-2.5V14z" fill="#fff"/></svg>