<svg width="72" height="93" viewBox="0 0 72 93" fill="none" xmlns="http://www.w3.org/2000/svg">
<path d="M44.28 3.27C38.58 -0.780004 30.58 0.709994 25.95 5.16999C21.32 9.62999 20.99 16.88 25.02 22.54C29.05 28.21 42.76 45.74 42.76 45.74L58.46 25.3V58.08C58.46 63.63 53.94 63.63 53.94 63.63V63.76H71.34V63.63C71.34 63.63 66.2 63.63 66.2 58.34V28.24C66.2 23.05 71.4 23.04 71.4 23.04V22.89H60.17L47.3 39.67C47.3 39.67 34.98 24.15 30.78 18.66C26.58 13.16 25.49 1.04 36.73 1.04C47.59 1.04 50.42 12.97 50.42 15.92H50.56V0.309998H50.42C50.37 1.8 49.8 6.35 44.28 3.27ZM47.53 67.87C43.26 62.37 13.11 22.9 13.11 22.9H0.349976V23.03C4.30998 23.03 7.04999 27.23 7.04999 27.23V57.05C7.04999 63.63 0.349976 63.63 0.349976 63.63V63.76H13.97V63.63C13.97 63.63 7.17999 63.39 7.17999 57.05V27.4C7.17999 27.4 37.47 66.34 41.78 71.75C47.33 78.72 47.28 92.13 35.45 92.13C24.59 92.13 21.76 80.16 21.76 77.21H21.62V92.82H21.76C21.82 91.33 22.76 86.17 27.91 89.86C33.41 94.13 42.96 92.36 47.59 87.9C52.22 83.44 53.42 75.42 47.53 67.86V67.87Z" fill="white"/>
</svg>
