<svg xmlns="http://www.w3.org/2000/svg" viewBox="0 0 634.46 96.52">
    <path fill="white" d="M62.12,73.34c0,11.72.38,14.11,2.27,16.76,1.76,2.26,3.91,3.15,9.45,3.52v1.26H25.58V93.62c5.54-.37,7.81-1.26,9.45-3.52,1.89-2.65,2.27-4.92,2.27-16.76V60.74L16.63,26.34C10.21,16,6.68,13,0,12.1V10.84H48.89V12.1c-4.41.5-6.8,2.64-6.8,6,0,3.15,1.26,6.3,4.66,12L61.11,53.93,65.4,47c5.67-9.2,8.44-17.14,8.44-24.32,0-6.17-1.64-9.32-5.42-10.58V10.84h32V12.1c-8.32,1.26-18.78,12-31.88,32.63L62.12,55.32Zm87.63,13.1c-8.7,7.31-14.62,10.08-21.05,10.08-6.93,0-11-3.9-12.6-12-6,8.44-12.73,12-22.68,12-10.58,0-17.89-5.67-17.89-13.73,0-7.44,4.53-11.85,18.39-17.64a185,185,0,0,1,22.18-7.69V50.91c0-8.57-.5-12.35-1.76-14.37a6.55,6.55,0,0,0-5.67-3,9.37,9.37,0,0,0-8.57,5c-1.14,2.27-1.26,3-2.27,11s-6.17,13-13.36,13a8.47,8.47,0,0,1-8.82-8.82c0-5.29,3.66-9.83,11.47-14.11,9.7-5.55,24.32-9.33,35.28-9.33,4.66,0,8.19,1.14,11.09,3.53,3.65,2.9,4.91,6.68,4.91,13.86v29c0,4.79.13,6.43.89,7.94A4.8,4.8,0,0,0,144,87.2c1.51,0,2.65-.38,5-1.64ZM116.1,59c-11.47,3.66-14.87,7.69-14.87,17.26,0,7.56,2.52,11.72,7.31,11.72s7.56-3.65,7.56-9.45Zm59.72-9.45c5-13.36,10.84-19.28,19-19.28a11.06,11.06,0,0,1,11.34,11c0,6-4.28,10.58-9.7,10.58a9,9,0,0,1-5.92-2.14c-1-.76-1-.76-3.66-4.41-1.38-1.77-2.52-2.52-3.9-2.52a4.55,4.55,0,0,0-3.91,2.64c-1.89,3.41-2.27,6.43-2.27,17.64V78.75c0,12.86,1.14,14.5,10.08,14.87v1.26H144.45V93.62c8.94-.37,10.08-2,10.08-14.87V58.09c0-7.56-.51-10.59-2.52-13.23-1.77-2.4-4-3.4-8.19-3.65l-.25-1.27c13.48-3.15,17.76-4.41,32.25-9.7Zm59.35,0c5-13.36,10.84-19.28,19-19.28a11.06,11.06,0,0,1,11.34,11c0,6-4.29,10.58-9.71,10.58a9,9,0,0,1-5.92-2.14c-1-.76-1-.76-3.65-4.41-1.39-1.77-2.52-2.52-3.91-2.52a4.54,4.54,0,0,0-3.9,2.64c-1.89,3.41-2.27,6.43-2.27,17.64V78.75c0,12.86,1.13,14.5,10.08,14.87v1.26H203.79V93.62c9-.37,10.08-2,10.08-14.87V58.09c0-7.56-.5-10.59-2.52-13.23-1.76-2.4-4-3.4-8.19-3.65l-.25-1.27c13.48-3.15,17.77-4.41,32.26-9.7ZM337,86.44c-8.7,7.31-14.62,10.08-21.05,10.08-6.93,0-11-3.9-12.6-12-6.05,8.44-12.73,12-22.68,12-10.59,0-17.89-5.67-17.89-13.73,0-7.44,4.53-11.85,18.39-17.64a185,185,0,0,1,22.18-7.69V50.91c0-8.57-.5-12.35-1.76-14.37a6.55,6.55,0,0,0-5.67-3,9.37,9.37,0,0,0-8.57,5c-1.14,2.27-1.26,3-2.27,11s-6.17,13-13.36,13a8.47,8.47,0,0,1-8.82-8.82c0-5.29,3.66-9.83,11.47-14.11,9.7-5.55,24.32-9.33,35.28-9.33,4.66,0,8.19,1.14,11.09,3.53,3.65,2.9,4.91,6.68,4.91,13.86v29c0,4.79.13,6.43.89,7.94a4.8,4.8,0,0,0,4.66,2.65c1.51,0,2.64-.38,5-1.64ZM303.33,59c-11.47,3.66-14.87,7.69-14.87,17.26,0,7.56,2.52,11.72,7.31,11.72s7.56-3.65,7.56-9.45ZM367,10.84c18.9,0,28.48,1.26,35.66,4.66,7.69,3.65,11.47,8.69,11.47,15.12,0,6.93-4.41,12.35-12.48,15.12-4.41,1.39-9.45,2.14-17.13,2.52C397,49.77,402.37,51,407.41,53.55c8.06,3.91,12.35,10,12.35,17.52,0,14.74-14.87,23.81-38.69,23.81H334V93.62c5.54-.37,7.81-1.26,9.45-3.52,1.89-2.65,2.26-4.92,2.26-16.76v-41c0-11.84-.37-14.11-2.26-16.76-1.64-2.26-3.91-3.14-9.45-3.52V10.84Zm6.8,37c7.69,0,10.72-1.13,13-4.79,2.15-3.27,3.15-7.3,3.15-13,0-6.93-1.38-11.6-4.41-14.5-2.52-2.39-5.67-3.27-12-3.27h-3V47.88ZM370.49,80c0,11.22,1.26,13.36,7.81,13.36,10.46,0,15-6.68,15-21.92,0-8.57-1.64-14.62-4.79-17.9S382,49.4,374.39,49.4h-3.9ZM444.7,57.33c.13,15.63,7.06,23.44,20.92,23.44,9.07,0,15-3.15,20.16-11l1.13.5c-2.77,7.44-4.79,11-8.31,15.25-5.8,7.06-14.37,11-24.07,11-18.9,0-33.27-14-33.27-32.26a33.86,33.86,0,0,1,34.28-34c10.45,0,19.78,4.54,25.58,12.48,3.15,4.28,4.41,8.06,5.29,14.61ZM464,55.82c0-8.44-.25-12.35-.88-15.75-1.26-5.67-3.66-8.19-7.82-8.19-6.8,0-10.71,8.57-10.71,23.94Zm53.67-13.61c8.7-8.94,14.62-12,22.94-12,5.67,0,10.46,1.89,12.85,5.29,2.14,2.78,2.9,6.43,2.9,13.11V81.28c-.13,10.33.75,11.71,7.56,12.34v1.26H528.11V93.62c5.29-.63,6-2.14,5.92-12.34V57.46c0-10.08-.25-12.35-1.38-14.49a6.48,6.48,0,0,0-5.42-3.15c-3.15,0-6.05,1.39-9.58,4.41V81.28c-.12,10.2.63,11.71,5.93,12.34v1.26H485.27V93.62c9-.37,10.08-2,10.08-14.87V58.09c0-7.56-.5-10.59-2.52-13.23-1.76-2.4-4-3.4-8.19-3.65l-.25-1.27a269.26,269.26,0,0,0,33.26-9.7Zm85.18,44.23c-6.05,6.93-12.23,10.08-19.16,10.08-13.23,0-22.93-12.35-22.93-29.23,0-20.67,15.25-37.05,34.28-37.05,2.89,0,4.41.38,7.81,1.64V27c0-7.56-.51-10.46-2.52-13.11-1.77-2.52-4-3.53-8.19-3.65l-.26-1.39A284.26,284.26,0,0,0,625.13,0V70.44c0,12.35,1.39,14.62,9.33,15.25V87c-12.23,3.27-17.39,4.91-31.63,9.57Zm0-47.5c0-4.29-2.4-7.06-6.3-7.06-7.94,0-12.22,11.21-12.22,31.88,0,17.52,3.27,24.82,10.83,24.82,3,0,4.79-1,7.69-4.28Z"/>
</svg>
