
<svg viewBox="0 -2.5 63 14" version="1.1" xmlns="http://www.w3.org/2000/svg" xmlns:xlink="http://www.w3.org/1999/xlink">
    <g id="home" stroke="none" stroke-width="1" fill="none" fill-rule="evenodd">
        <g id="Desktop-HD" transform="translate(-974.000000, -715.000000)" fill="#22334D">
            <g id="team-logos" transform="translate(875.000000, 709.000000)">
                <g id="Group-12">
                    <path d="M103.36217,8.3098 L104.4418,11.7998 L102.253096,11.7998 L103.36217,8.3098 Z M99.3184667,15.1518 L101.187207,15.1518 L101.766281,13.3278 L104.914874,13.3278 L105.478244,15.1518 L107.415689,15.1518 L104.390763,6.2818 L102.370874,6.2818 L99.3184667,15.1518 Z M111.567356,8.4358 C111.070726,8.4358 110.670281,8.5698 110.360133,8.8398 C110.169726,8.9998 109.947911,9.2978 109.692726,9.7358 L109.692726,8.5918 L108.116467,8.5918 L108.116467,15.1518 L109.781059,15.1518 L109.781059,12.0158 C109.781059,11.4898 109.843874,11.1018 109.971467,10.8498 C110.19917,10.3998 110.646726,10.1758 111.31217,10.1758 C111.361244,10.1758 111.427985,10.1778 111.508467,10.1818 C111.588948,10.1858 111.68317,10.1938 111.787207,10.2058 L111.787207,8.4478 C111.712615,8.4438 111.665504,8.4418 111.643911,8.4398 C111.624281,8.4378 111.5968,8.4358 111.567356,8.4358 Z M117.994096,10.9458 C117.899874,10.0098 117.601504,9.3598 117.097022,8.9898 C116.590578,8.6198 115.9428,8.4358 115.1478,8.4358 C114.215393,8.4358 113.483207,8.7498 112.953207,9.3758 C112.423207,9.9998 112.158207,10.8758 112.158207,12.0018 C112.158207,12.9978 112.397689,13.8098 112.878615,14.4358 C113.357578,15.0598 114.10743,15.3738 115.124244,15.3738 C116.143022,15.3738 116.910541,14.9978 117.430726,14.2478 C117.754615,13.7838 117.93717,13.2898 117.97643,12.7678 L116.288281,12.7678 C116.252948,13.1138 116.1548,13.3938 115.991874,13.6098 C115.828948,13.8278 115.554133,13.9358 115.165467,13.9358 C114.619763,13.9358 114.2468,13.6638 114.050504,13.1178 C113.940578,12.8258 113.887578,12.4398 113.887578,11.9598 C113.887578,11.4558 113.940578,11.0498 114.050504,10.7458 C114.254652,10.1738 114.63743,9.8858 115.194911,9.8858 C115.585541,9.8858 115.876059,10.0178 116.060578,10.2838 C116.190133,10.4798 116.268652,10.6998 116.300059,10.9458 L117.994096,10.9458 Z M122.369541,8.4178 C122.024059,8.4178 121.694281,8.4938 121.380207,8.6438 C121.066133,8.7938 120.789356,9.0598 120.551837,9.4418 L120.551837,6.3118 L118.899022,6.3118 L118.899022,15.1518 L120.551837,15.1518 L120.551837,11.5978 C120.551837,11.0358 120.663726,10.6018 120.887504,10.2998 C121.113244,9.9958 121.441059,9.8438 121.874874,9.8438 C122.292985,9.8438 122.577615,9.9958 122.7268,10.3018 C122.842615,10.5178 122.899541,10.8038 122.899541,11.1578 L122.899541,15.1518 L124.587689,15.1518 L124.587689,11.2958 C124.587689,10.7098 124.568059,10.2878 124.530763,10.0298 C124.491504,9.7698 124.385504,9.5178 124.212763,9.2738 C124.008615,8.9838 123.747541,8.7698 123.429541,8.6298 C123.111541,8.4878 122.76017,8.4178 122.369541,8.4178 Z M125.928393,7.8098 L127.604763,7.8098 L127.604763,6.2278 L125.928393,6.2278 L125.928393,7.8098 Z M125.928393,15.1518 L127.604763,15.1518 L127.604763,8.5938 L125.928393,8.5938 L125.928393,15.1518 Z M129.198689,9.8738 L129.198689,13.9118 C129.198689,14.3198 129.292911,14.6238 129.47743,14.8198 C129.764022,15.1298 130.297948,15.2698 131.079207,15.2418 L131.86243,15.2118 L131.86243,13.9298 C131.807467,13.9338 131.752504,13.9358 131.695578,13.9378 C131.640615,13.9398 131.587615,13.9418 131.536578,13.9418 C131.200911,13.9418 130.998726,13.9078 130.933948,13.8418 C130.867207,13.7758 130.8358,13.6078 130.8358,13.3398 L130.8358,9.8738 L131.86243,9.8738 L131.86243,8.6518 L130.8358,8.6518 L130.8358,6.8238 L129.198689,6.8238 L129.198689,8.6518 L128.317319,8.6518 L128.317319,9.8738 L129.198689,9.8738 Z M135.319207,9.8318 C135.709837,9.8318 136.035689,9.9498 136.298726,10.1858 C136.563726,10.4218 136.708985,10.7658 136.740393,11.2218 L133.892133,11.2218 C133.951022,10.7958 134.098244,10.4558 134.331837,10.2078 C134.56543,9.9578 134.895207,9.8318 135.319207,9.8318 Z M135.319207,8.4178 C134.392689,8.4178 133.638911,8.7218 133.057874,9.3278 C132.476837,9.9338 132.186319,10.8058 132.186319,11.9418 C132.186319,13.1538 132.508244,14.0278 133.152096,14.5658 C133.793985,15.1038 134.537948,15.3738 135.378096,15.3738 C136.396874,15.3738 137.189911,15.0538 137.757207,14.4178 C138.120356,14.0158 138.324504,13.6198 138.369652,13.2318 L136.681504,13.2318 C136.583356,13.4238 136.469504,13.5738 136.341911,13.6838 C136.106356,13.8838 135.800133,13.9838 135.423244,13.9838 C135.067948,13.9838 134.765652,13.9018 134.51243,13.7378 C134.098244,13.4718 133.87643,13.0118 133.850911,12.3538 L138.456022,12.3538 C138.463874,11.7858 138.446207,11.3538 138.401059,11.0518 C138.324504,10.5378 138.155689,10.0858 137.898541,9.6958 C137.609985,9.2538 137.246837,8.9298 136.80517,8.7258 C136.363504,8.5198 135.868837,8.4178 135.319207,8.4178 Z M144.52943,10.9458 C144.43717,10.0098 144.136837,9.3598 143.632356,8.9898 C143.127874,8.6198 142.478133,8.4358 141.685096,8.4358 C140.752689,8.4358 140.020504,8.7498 139.490504,9.3758 C138.960504,9.9998 138.695504,10.8758 138.695504,12.0018 C138.695504,12.9978 138.934985,13.8098 139.413948,14.4358 C139.894874,15.0598 140.642763,15.3738 141.661541,15.3738 C142.680319,15.3738 143.447837,14.9978 143.966059,14.2478 C144.291911,13.7838 144.472504,13.2898 144.511763,12.7678 L142.823615,12.7678 C142.790244,13.1138 142.690133,13.3938 142.527207,13.6098 C142.364281,13.8278 142.089467,13.9358 141.702763,13.9358 C141.155096,13.9358 140.784096,13.6638 140.585837,13.1178 C140.477874,12.8258 140.422911,12.4398 140.422911,11.9598 C140.422911,11.4558 140.477874,11.0498 140.585837,10.7458 C140.791948,10.1738 141.172763,9.8858 141.732207,9.8858 C142.122837,9.8858 142.411393,10.0178 142.597874,10.2838 C142.725467,10.4798 142.803985,10.6998 142.835393,10.9458 L144.52943,10.9458 Z M145.654207,9.8738 L145.654207,13.9118 C145.654207,14.3198 145.74843,14.6238 145.932948,14.8198 C146.219541,15.1298 146.753467,15.2698 147.534726,15.2418 L148.317948,15.2118 L148.317948,13.9298 C148.262985,13.9338 148.208022,13.9358 148.151096,13.9378 C148.096133,13.9398 148.043133,13.9418 147.992096,13.9418 C147.65643,13.9418 147.454244,13.9078 147.389467,13.8418 C147.322726,13.7758 147.291319,13.6078 147.291319,13.3398 L147.291319,9.8738 L148.317948,9.8738 L148.317948,8.6518 L147.291319,8.6518 L147.291319,6.8238 L145.654207,6.8238 L145.654207,8.6518 L144.772837,8.6518 L144.772837,9.8738 L145.654207,9.8738 Z M149.095281,8.5918 L149.095281,12.5458 C149.095281,13.2958 149.185578,13.8638 149.36617,14.2478 C149.690059,14.9458 150.318207,15.2958 151.252578,15.2958 C151.576467,15.2958 151.85717,15.2518 152.098615,15.1638 C152.340059,15.0758 152.589356,14.9098 152.848467,14.6698 C152.932874,14.5938 153.005504,14.5058 153.068319,14.4058 C153.12917,14.3038 153.16843,14.2438 153.184133,14.2238 L153.184133,15.1518 L154.789837,15.1518 L154.789837,8.5918 L153.113467,8.5918 L153.113467,12.1598 C153.113467,12.5818 153.060467,12.9218 152.952504,13.1778 C152.74443,13.6518 152.359689,13.8878 151.798281,13.8878 C151.358578,13.8878 151.066096,13.7218 150.914948,13.3878 C150.830541,13.1998 150.787356,12.9178 150.787356,12.5458 L150.787356,8.5918 L149.095281,8.5918 Z M155.76543,13.0578 C155.76543,13.7318 156.002948,14.2858 156.476022,14.7218 C156.951059,15.1558 157.68717,15.3738 158.682393,15.3738 C159.657985,15.3738 160.380356,15.1678 160.847541,14.7578 C161.314726,14.3458 161.548319,13.8158 161.548319,13.1658 C161.548319,12.6718 161.385393,12.2618 161.059541,11.9318 C160.731726,11.6078 160.237059,11.3638 159.579467,11.2038 C158.592096,10.9798 158.016948,10.8218 157.854022,10.7278 C157.691096,10.6398 157.608652,10.4978 157.608652,10.3018 C157.608652,10.1458 157.685207,10.0078 157.838319,9.8918 C157.99143,9.7758 158.248578,9.7178 158.609763,9.7178 C159.047504,9.7178 159.357652,9.8338 159.540207,10.0658 C159.636393,10.1958 159.697244,10.3698 159.7208,10.5898 L161.373615,10.5898 C161.299022,9.7878 161.014393,9.2238 160.5158,8.8958 C160.017207,8.5698 159.373356,8.4058 158.584244,8.4058 C157.749985,8.4058 157.10417,8.6238 156.644837,9.0598 C156.185504,9.4938 155.955837,10.0138 155.955837,10.6198 C155.955837,11.1338 156.103059,11.5278 156.397504,11.7998 C156.689985,12.0758 157.19643,12.3078 157.914874,12.4918 C158.914022,12.7358 159.48917,12.9078 159.644244,13.0098 C159.799319,13.1098 159.877837,13.2558 159.877837,13.4478 C159.877837,13.6498 159.781652,13.7998 159.589281,13.8998 C159.396911,13.9998 159.1378,14.0498 158.809985,14.0498 C158.254467,14.0498 157.873652,13.9358 157.667541,13.7078 C157.551726,13.5778 157.47517,13.3618 157.4418,13.0578 L155.76543,13.0578 Z" id="Fill-4"></path>
                </g>
            </g>
        </g>
    </g>
</svg>