
<svg viewBox="0 0 63 16" version="1.1" xmlns="http://www.w3.org/2000/svg" xmlns:xlink="http://www.w3.org/1999/xlink">
    <defs>
        <polygon id="path-1" points="0 0.38 62.2288704 0.38 62.2288704 15.374 0 15.374"></polygon>
    </defs>
    <g id="home" stroke="none" stroke-width="1" fill="none" fill-rule="evenodd">
        <g id="Desktop-HD" transform="translate(-875.000000, -709.000000)">
            <g id="team-logos" transform="translate(875.000000, 709.000000)">
                <g id="Group-12">
                    <g id="Group-3">
                        <mask id="mask-2" fill="white">
                            <use xlink:href="#path-1"></use>
                        </mask>
                        <g id="Clip-2"></g>
                        <path d="M62.2288704,5.078 L62.2288704,3.25 L56.2339815,3.25 L56.2339815,15.374 L62.2112037,15.374 L62.2112037,13.544 L58.2263889,13.544 L58.2263889,9.21 L61.4299444,9.21 L61.4299444,7.38 L58.2263889,7.38 L58.2263889,5.078 L62.2288704,5.078 Z M59.7103889,2.672 L61.6282037,0.38 L60.1186852,0.38 L58.7347963,2.672 L59.7103889,2.672 Z M48.7393889,13.528 L52.1785,3.284 L46.3818704,3.284 L46.3818704,5.096 L49.4382037,5.096 L45.9519815,15.374 L52.1097963,15.374 L52.1097963,13.528 L48.7393889,13.528 Z M39.7647222,15.374 L41.7433889,15.374 L41.7433889,3.232 L39.7647222,3.232 L39.7647222,7.72 L34.6355,2.804 L34.6217593,15.374 L36.6141667,15.374 L36.6141667,7.118 L39.7647222,10.344 L39.7647222,15.374 Z M27.902537,15.372 L29.8419444,15.374 L28.8467222,6.466 C28.8467222,5.31 28.5032037,4.456 27.8161667,3.906 C27.2606481,3.468 26.5323889,3.25 25.623537,3.25 L22.4513889,3.25 L22.4297963,15.374 L24.3122778,15.374 L24.3122778,9.328 L27.2763519,9.328 L27.902537,15.372 Z M27.0349074,7.55 L24.3122778,7.55 L24.3122778,5.028 L25.2427222,5.028 C25.8630185,5.028 26.3046852,5.228 26.5696852,5.632 C26.7915,5.98 26.9465741,6.62 27.0349074,7.55 Z M17.832537,15.374 L15.6732778,9.074 C16.3701296,8.736 16.8451667,8.406 17.1003519,8.078 C17.4340556,7.65 17.5969815,7.014 17.5969815,6.17 C17.5969815,5.292 17.2887963,4.586 16.6685,4.05 C16.0482037,3.516 15.2963889,3.25 14.4110926,3.25 L10.2908333,3.25 L10.2908333,15.374 L12.267537,15.374 L12.267537,9.226 L13.7358333,9.224 L15.8597593,15.374 L17.832537,15.374 Z M15.5555,6.23 C15.5555,6.568 15.4279074,6.856 15.1746852,7.094 C14.9195,7.33 14.6172037,7.45 14.2619074,7.45 L12.267537,7.45 L12.267537,5.01 L14.2619074,5.01 C14.6172037,5.01 14.9195,5.128 15.1746852,5.366 C15.4279074,5.602 15.5555,5.89 15.5555,6.23 Z M1.96001852,5.078 L5.99390741,5.078 L5.99390741,3.25 L-0.000981481481,3.25 L-0.000981481481,15.374 L1.96001852,15.374 L1.96001852,9.21 L5.19890741,9.21 L5.19890741,7.38 L1.96001852,7.38 L1.96001852,5.078 Z" id="Fill-1" fill="#22334D" mask="url(#mask-2)"></path>
                    </g>
                </g>
            </g>
        </g>
    </g>
</svg>