<svg xmlns="http://www.w3.org/2000/svg" xmlns:xlink="http://www.w3.org/1999/xlink" version="1.1" viewBox="0 0 26 26">
   <g fill="#22334D">
    <path d="M13.6267232,17.3816331 L16.5007712,20.3703417 C15.2933096,21.0822389 13.924371,21.4602375 12.5,21.4602375 C10.326087,21.4602375 8.28352453,20.5807608 6.74708378,18.981827 C5.21064302,17.3841531 4.36349176,15.2598013 4.36349176,12.99937 C4.36349176,10.7401987 5.21064302,8.61458687 6.74708378,7.01691301 C8.28352453,5.41923916 10.326087,4.53850254 12.5,4.53850254 C14.672708,4.53850254 16.7152704,5.41923916 18.2517112,7.01691301 C19.789357,8.61458687 20.6353032,10.7401987 20.6353032,13.00063 L25,13.00063 C25,9.52808335 23.6997493,6.26343591 21.3378483,3.80770535 C18.9771522,1.3519748 15.8379929,0 12.5,0 C9.16080208,0 6.02164273,1.3519748 3.66094669,3.80770535 C1.30025065,6.26343591 0,9.52682336 0,12.99937 C0,16.4719166 1.30025065,19.7365641 3.66094669,22.1922946 C6.02164273,24.6467652 9.16080208,26 12.5,26 C15.8379929,26 18.9771522,24.6467652 21.3378483,22.1922946 L22.8815193,20.5870608 L16.7369613,14.1963654 L13.6267232,17.3816331 Z"/>
    <polygon  points="20 23.1206369 22.88 26 26 22.8805879 23.12 20"/>
   </g>
</svg>
