<svg viewBox="0 -2.8 65 17" version="1.1" xmlns="http://www.w3.org/2000/svg" xmlns:xlink="http://www.w3.org/1999/xlink">
   <g fill="#22334D">
      <path d="M48.5,5.41221111 C48.5,5.14936185 48.5,4.95688168 48.4821429,4.72921697 L48.3630952,4.72921697 C48.3611111,4.72921697 48.3611111,4.72921697 48.3611111,4.72921697 L41.8075397,4.72921697 L41.8075397,7.31631597 L45.531746,7.31631597 L45.5119048,7.40531218 C45.2063492,8.52914798 43.9107143,9.41083132 42.4781746,9.41083132 C41.0595238,9.41083132 39.3809524,8.36357365 39.3809524,5.94618834 C39.3809524,3.66747154 41.0436508,2.59123836 42.4623016,2.59123836 C43.5873016,2.59123836 44.375,3.17488789 44.8373016,3.90134529 L48.125,3.90341497 C47.4265873,1.75508796 45.1626984,0 42.5376984,0 C39.2142857,0 36.5,2.49603311 36.5,5.94618834 C36.5,9.27009314 39.077381,12 42.4920635,12 C45.5674603,12 48.3869048,9.75232839 48.4781746,5.99586064 C48.4920635,5.80545016 48.5,5.61090031 48.5,5.41221111" id="Fill-19"></path>
      <path d="M62.0597274,3.5931618 C61.9982652,3.20359178 61.9070632,2.46796754 61.0228005,2.46796754 C60.5211896,2.46796754 60.0334572,2.82852702 60.0334572,3.37351062 C60.0334572,4.0614747 60.336803,4.20238301 62.3650558,5.14108099 C64.4666667,6.1087895 65,7.10965291 65,8.45242618 C65,10.1391815 64.0562577,12 61.0684015,12 C57.8069393,12 57,9.8117769 57,8.32809532 L57,7.95303056 L59.8649318,7.95303056 C59.8649318,9.29580383 60.6738538,9.52996028 61.0386617,9.52996028 C61.7246592,9.52996028 62.1350682,8.95182179 62.1350682,8.42134346 C62.1350682,7.6546365 61.663197,7.46814022 59.9263941,6.71801071 C59.1333333,6.39060611 57.1685254,5.57831117 57.1685254,3.40666552 C57.1685254,1.23294768 59.2245353,0 61.1140025,0 C62.2282528,0 63.4317224,0.420652737 64.1633209,1.31169055 C64.8334572,2.15506821 64.8790582,2.93628044 64.908798,3.5931618 L62.0597274,3.5931618" id="Fill-10"></path>
      <polygon id="Fill-13" points="3 12 6 12 6 0 3 0"></polygon>
      <polygon id="Fill-14" points="10 12 13 12 13 0 10 0"></polygon>
      <polygon id="Fill-15" points="0 8 10 8 10 5 0 5"></polygon>
      <polygon id="Fill-16" points="49 3 57 3 57 0 49 0"></polygon>
      <polygon id="Fill-17" points="49 7.5 55 7.5 55 4.5 49 4.5"></polygon>
      <polygon id="Fill-18" points="49 12 57 12 57 9 49 9"></polygon>
      <path d="M19.4930035,0 C22.9972514,0 25.5,2.78086686 25.5,5.99896391 C25.5,9.21913314 23.0112444,12 19.4770115,12 C15.8968016,12 13.5,9.10930755 13.5,6.13987222 C13.5,5.37523744 13.607946,4.51528233 13.9457771,3.67190468 C14.5454773,2.17164566 16.3125937,0 19.4930035,0 M19.3286227,9.078 C21.3158724,9.078 22.2805567,7.238 22.2805567,5.806 C22.2805567,4.358 21.3158724,2.504 19.2996822,2.504 C17.3568079,2.504 16.3033726,4.192 16.3033726,5.76 C16.3033726,7.48 17.4455589,9.078 19.3286227,9.078" id="Fill-6"></path>
      <path d="M26,0 L29.8280138,0 C31.1250254,0 33.4385038,0 34.9388087,2.23870968 C35.7357186,3.37204301 36,4.65376344 36,5.96774194 C36,9.24301075 34.4387071,12 30.0475706,12 L26,12 L26,0 Z M28.9538524,9.30752688 L30.2183371,9.30752688 C32.422037,9.30752688 33.0481805,7.71827957 33.0481805,6.01505376 C33.0481805,5.33548387 32.9058752,4.47526882 32.4850579,3.79354839 C32.1414922,3.26021505 31.5478756,2.69247312 30.2346005,2.69247312 L28.9538524,2.69247312 L28.9538524,9.30752688 Z" id="Fill-8"></path>
   </g>
</svg>