
<svg viewBox="0 0 71.8 17.1" version="1.1" xmlns="http://www.w3.org/2000/svg" xmlns:xlink="http://www.w3.org/1999/xlink">
    <g id="home" stroke="none" stroke-width="1" fill="none" fill-rule="evenodd">
        <g id="Desktop-HD" transform="translate(-1176.000000, -710.000000)" fill="#22334D">
            <g id="team-logos" transform="translate(875.000000, 709.000000)">
                <g id="Group-23" transform="translate(235.000000, 1.000000)">
                    <path d="M139.061567,5.6812 C139.061567,6.0532 138.836358,6.3092 138.489733,6.3092 C138.14115,6.3092 137.913983,6.0532 137.913983,5.6812 C137.913983,5.3092 138.14115,5.0532 138.489733,5.0532 C138.836358,5.0532 139.061567,5.3092 139.061567,5.6812 Z M138.965608,5.6812 C138.965608,5.3412 138.773692,5.1392 138.489733,5.1392 C138.203817,5.1392 138.0119,5.3412 138.0119,5.6812 C138.0119,6.0192 138.203817,6.2232 138.489733,6.2232 C138.773692,6.2232 138.965608,6.0192 138.965608,5.6812 Z M138.746275,6.0012 C138.730608,6.0132 138.709067,6.0232 138.687525,6.0232 C138.640525,6.0232 138.613108,6.0072 138.585692,5.9552 L138.487775,5.7652 L138.391817,5.7652 L138.391817,6.0192 L138.288025,6.0192 L138.288025,5.4332 L138.237108,5.4332 L138.237108,5.3452 L138.483858,5.3452 C138.624858,5.3452 138.720817,5.4092 138.720817,5.5472 C138.720817,5.6492 138.675775,5.7212 138.589608,5.7492 L138.6699,5.9072 C138.685567,5.9332 138.6934,5.9372 138.70515,5.9372 C138.720817,5.9372 138.738442,5.9312 138.75215,5.9212 L138.746275,6.0012 Z M138.613108,5.5512 C138.613108,5.4612 138.566108,5.4332 138.468192,5.4332 L138.391817,5.4332 L138.391817,5.6812 L138.483858,5.6812 C138.579817,5.6812 138.613108,5.6292 138.613108,5.5512 Z M111.811358,12.7852 C111.4099,13.1732 110.712733,13.3792 109.919608,13.4772 C108.803358,13.6152 108.043525,13.8192 108.043525,14.6632 C108.043525,15.3232 108.632983,15.6972 109.345817,15.6972 C109.919608,15.6972 110.448358,15.4772 110.836108,15.0732 C111.237567,14.6472 111.51565,14.0572 111.670358,13.3952 L111.811358,12.7852 Z M112.964817,6.9792 C113.385858,4.8392 115.363775,5.2012 115.363775,5.2012 L113.969442,12.3452 C113.6894,13.7832 113.315358,14.7992 112.710233,15.5452 C111.969983,16.4592 110.802817,16.9992 109.33015,16.9992 C107.612692,16.9992 106.32215,16.1552 106.32215,14.7312 C106.32215,13.7652 106.880275,13.0912 108.074858,12.7692 C107.763483,12.3932 107.561775,11.9052 107.561775,11.2972 C107.561775,10.8712 107.655775,10.3652 107.749775,9.8712 C107.749775,9.8712 107.82615,9.4812 108.288317,7.1252 C108.748525,4.7672 110.712733,5.2012 110.712733,5.2012 L109.796233,9.9392 C109.719858,10.3452 109.308608,11.9052 110.601108,11.9052 C112.050275,11.9052 112.383192,9.9392 112.5849,8.9092 C112.5849,8.9092 112.543775,9.1192 112.964817,6.9792 Z M104.655608,6.6052 C104.526358,6.5352 104.377525,6.4792 104.193442,6.4792 C102.391775,6.4792 101.253983,8.8512 101.253983,10.5792 C101.253983,11.5452 101.596692,12.0552 102.295817,12.0552 C102.793233,12.0552 103.151608,11.8532 103.43165,11.5132 C103.709733,11.1572 103.882067,10.6312 104.003483,10.0212 L104.655608,6.6052 Z M106.837192,5.8332 L105.372358,13.5812 L105.096233,13.5812 C104.475442,13.5812 103.929067,13.3452 103.7489,12.7112 C103.329817,13.2052 102.593483,13.5812 101.661317,13.5812 C100.108358,13.5812 99.1624833,12.4652 99.1624833,10.6492 C99.1624833,7.5472 101.41065,5.0532 104.236525,5.0532 C105.207858,5.0532 106.047983,5.3632 106.837192,5.8332 Z M99.630525,0.6872 L97.1943583,13.5812 L96.9201917,13.5812 C96.2974417,13.5812 95.7549833,13.3352 95.5748167,12.7192 C95.142025,13.2112 94.4194,13.5812 93.4872333,13.5812 C91.9323167,13.5812 90.9100667,12.4472 90.9100667,10.6312 C90.9100667,7.6812 93.02115,5.0532 95.9841083,5.0532 C96.2778583,5.0532 96.5735667,5.0812 96.7596083,5.1292 C96.7419833,5.2292 97.0846917,3.4592 97.2668167,2.4472 C97.6428167,0.3692 99.4679833,0.6652 99.630525,0.6872 Z M96.4795667,6.6092 C96.3718583,6.5392 96.1094417,6.4792 95.8764,6.4792 C94.2921083,6.4792 93.0113583,8.5992 93.0113583,10.5652 C93.0113583,11.5312 93.4245667,12.0552 94.1217333,12.0552 C94.6171917,12.0552 94.9618583,11.8532 95.2419,11.5132 C95.5199833,11.1572 95.7079833,10.6312 95.8313583,10.0212 L96.4795667,6.6092 Z M135.236942,5.0532 C134.2519,5.0532 133.411775,5.5372 132.875192,6.1892 C132.875192,6.1892 132.802733,4.5592 130.83265,5.2072 C131.189067,6.3492 130.993233,6.7512 130.593733,9.0512 L130.17465,11.2752 C130.10415,11.6592 129.641983,13.5812 131.498483,13.5812 L131.77265,13.5812 L132.505067,9.7152 C132.708733,8.6812 133.08865,6.7132 134.524108,6.7132 C135.236942,6.7132 135.60315,7.1992 135.377942,8.3872 L134.833525,11.2732 C134.75715,11.6432 134.28715,13.5812 136.153442,13.5812 L136.429567,13.5812 L137.428317,8.3032 C137.8709,6.0452 136.795775,5.0532 135.236942,5.0532 Z M73.3731917,1.9512 C73.28115,2.4412 73.075525,3.5092 72.7426083,5.2632 L69.3174833,6.0072 L70.3221083,0.6872 C70.0107333,0.6272 68.3128583,0.4792 67.964275,2.4092 C67.8546083,3.0152 66.2820667,11.2752 66.2820667,11.2752 C66.2037333,11.7072 65.7454833,13.5812 67.5980667,13.5812 L67.8839833,13.5812 L68.8729417,8.3552 L72.300025,7.6112 C71.959275,9.4072 71.6048167,11.2752 71.6048167,11.2752 C71.5284417,11.6472 71.0701917,13.5812 72.9266917,13.5812 L73.204775,13.5812 L75.7388583,0.1972 C75.7388583,0.1972 73.77465,-0.1868 73.3731917,1.9512 Z M126.823942,5.0532 C125.8389,5.0532 124.998775,5.5372 124.460233,6.1892 C124.460233,6.1892 124.389733,4.5592 122.417692,5.2072 C122.774108,6.3492 122.580233,6.7512 122.180733,9.0512 L121.76165,11.2752 C121.69115,11.6592 121.228983,13.5812 123.085483,13.5812 L123.35965,13.5812 L124.092067,9.7152 C124.295733,8.6812 124.673692,6.7132 126.10915,6.7132 C126.823942,6.7132 127.19015,7.1992 126.964942,8.3872 L126.420525,11.2732 C126.342192,11.6432 125.87415,13.5812 127.740442,13.5812 L128.016567,13.5812 L129.015317,8.3032 C129.4579,6.0452 128.382775,5.0532 126.823942,5.0532 Z M119.566358,1.8552 C119.260858,3.4212 117.786233,11.2752 117.786233,11.2752 C117.692233,11.7272 117.2849,13.5812 119.10615,13.5812 L119.386192,13.5812 L121.910483,0.1972 C121.430692,0.1032 119.907108,0.1152 119.566358,1.8552 Z M80.70715,8.0552 C80.70715,7.1732 80.3996917,6.5452 79.57915,6.5452 C79.0660667,6.5452 78.6117333,6.8672 78.2729417,7.3432 C77.6325667,8.2232 77.3074833,9.6312 77.3074833,10.5792 C77.3074833,11.4612 77.6325667,12.0912 78.457025,12.0912 C78.9701083,12.0912 79.4029,11.7672 79.7456083,11.2912 C80.384025,10.4132 80.70715,9.0052 80.70715,8.0552 Z M82.7908167,8.0352 C82.7908167,9.8212 82.1210667,11.5132 80.971525,12.5292 C80.2449833,13.1912 79.2834417,13.5812 78.1946083,13.5812 C76.471275,13.5812 75.2277333,12.5632 75.2277333,10.5792 C75.2277333,8.8012 75.895525,7.1232 77.0450667,6.1072 C77.775525,5.4432 78.7370667,5.0532 79.8259,5.0532 C81.547275,5.0532 82.7908167,6.0532 82.7908167,8.0352 Z M88.18015,6.8992 C87.7689,8.9872 87.351775,11.2752 87.351775,11.2752 C87.2754,11.6472 86.8191083,13.5812 88.67365,13.5812 L88.949775,13.5812 L90.5321083,5.1992 C90.45965,5.1892 88.5835667,4.8412 88.18015,6.8992 Z M85.283775,2.4092 C84.8823167,4.5472 83.6054833,11.2752 83.6054833,11.2752 C83.52715,11.6472 83.0689,13.5812 84.9234417,13.5812 L85.2054417,13.5812 L87.6416083,0.6872 C87.6416083,0.6872 85.6813167,0.2912 85.283775,2.4092 Z M90.1659,1.7092 C89.4511083,1.7092 88.7519833,2.4232 88.7519833,3.2212 C88.7519833,3.8132 89.1397333,4.2232 89.6684833,4.2232 C90.383275,4.2232 91.0961083,3.5092 91.0961083,2.7112 C91.0961083,2.1212 90.69465,1.7092 90.1659,1.7092 Z" id="Fill-21"></path>
                </g>
            </g>
        </g>
    </g>
</svg>