<svg viewBox="0 0 222 84" xmlns="http://www.w3.org/2000/svg"><path d="M217.634 63.407h-4.367v14.42h4.367V71.31c0-1.306.46-2.226 1.383-2.755.922-.528 1.917-.705 2.983-.533v-4.902c-.989 0-1.896.245-2.72.734a3.553 3.553 0 0 0-1.646 2.12v-2.566zm-6.433 8.94a8.119 8.119 0 0 0 .175-1.73c0-2.173-.704-3.984-2.11-5.437-1.408-1.452-3.169-2.176-5.283-2.176-2.27 0-4.13.724-5.577 2.176-1.445 1.453-2.168 3.264-2.168 5.438 0 2.192.732 4.008 2.199 5.45 1.464 1.442 3.42 2.163 5.866 2.163 2.793 0 4.908-.99 6.345-2.97l-3.493-1.99c-.681.73-1.61 1.095-2.796 1.095-1.823 0-2.99-.672-3.493-2.018h10.335zm-10.421-3.23c.426-1.519 1.485-2.279 3.172-2.279 1.633 0 2.658.76 3.088 2.279h-6.26zm-5.415-5.71h-3v-4.04l-4.365 1.3v2.74l-1.793.004v4.15L188 67.56v5.104c0 2.097.532 3.553 1.601 4.37 1.066.818 2.988 1.083 5.764.794v-3.922c-1.068.057-1.835.01-2.3-.145-.466-.153-.7-.52-.7-1.097V67.56h3v-4.153zm-14.788 0h-4.367v14.42h4.367V71.31c0-1.306.46-2.226 1.382-2.755.921-.528 1.917-.705 2.986-.533v-4.902c-.992 0-1.898.245-2.724.734a3.551 3.551 0 0 0-1.644 2.12v-2.566zm-11.354 1.355c-1.03-1.172-2.473-1.758-4.337-1.758-1.922 0-3.562.734-4.92 2.206-1.358 1.47-2.036 3.272-2.036 5.407 0 2.135.678 3.937 2.037 5.408 1.357 1.472 2.997 2.206 4.919 2.206 1.864 0 3.308-.586 4.337-1.759v1.356h4.368V63.407h-4.368v1.355zm-5.968 8.422c-.64-.634-.96-1.49-.96-2.567 0-1.077.32-1.932.96-2.566.64-.636 1.476-.953 2.504-.953 1.03 0 1.862.317 2.502.953.642.634.962 1.49.962 2.566 0 1.078-.32 1.933-.962 2.567-.64.634-1.473.953-2.502.953-1.028 0-1.864-.32-2.504-.953zM151.67 71.28c0 .981-.243 1.72-.729 2.221-.484.5-1.143.75-1.98.75-.738 0-1.344-.226-1.82-.677-.475-.452-.712-1.1-.712-1.948v-8.22h-4.366v8.855c0 1.866.52 3.327 1.558 4.385 1.036 1.056 2.332 1.585 3.885 1.585 1.903 0 3.29-.586 4.164-1.759v1.356h4.367V63.407h-4.367v7.873zm-11.586-3.547c0-2.96-1.03-5.45-3.086-7.47-2.058-2.02-4.562-3.03-7.511-3.03-2.951 0-5.455 1.01-7.51 3.03-2.057 2.02-3.086 4.51-3.086 7.47 0 2.962 1.03 5.452 3.086 7.47 2.055 2.02 4.559 3.029 7.51 3.029 1.67 0 3.26-.366 4.774-1.096l2.184 2.279 3.35-2.943-2.04-2.134c1.552-1.903 2.329-4.105 2.329-6.605zm-10.597 6c-1.689 0-3.1-.558-4.236-1.673-1.135-1.115-1.701-2.557-1.701-4.327 0-1.768.566-3.21 1.7-4.327 1.136-1.114 2.548-1.673 4.237-1.673 1.69 0 3.102.56 4.237 1.673 1.135 1.117 1.703 2.559 1.703 4.327 0 1.172-.281 2.259-.845 3.26l-3.26-3.434-3.348 2.943 2.94 3.086c-.525.097-1 .145-1.427.145zm-23.433-8.856c-1.01-1.249-2.426-1.873-4.251-1.873-2.038 0-3.74.715-5.11 2.147-1.366 1.434-2.05 3.16-2.05 5.178s.684 3.745 2.05 5.176c1.37 1.434 3.072 2.15 5.11 2.15 1.825 0 3.241-.625 4.251-1.874v1.325c0 1-.292 1.764-.873 2.293-.582.529-1.388.793-2.417.793-1.552 0-2.66-.605-3.319-1.816l-3.726 2.135c1.319 2.326 3.62 3.489 6.899 3.489 2.135 0 3.95-.581 5.445-1.744 1.494-1.165 2.24-2.88 2.24-5.15v-13.7h-4.249v1.47zm-6.056 7.875c-.659-.616-.989-1.422-.989-2.423 0-1 .33-1.807.99-2.423.658-.615 1.503-.923 2.532-.923 1.03 0 1.872.308 2.533.923.659.616.99 1.424.99 2.423 0 1-.331 1.807-.99 2.423-.661.615-1.504.923-2.533.923-1.03 0-1.874-.308-2.533-.923zm-12.489-9.75c-1.903 0-3.29.587-4.162 1.76v-1.356H78.98v14.422h4.367v-7.874c0-.98.24-1.72.727-2.221.484-.5 1.145-.749 1.98-.749.736 0 1.342.225 1.818.677.476.451.713 1.101.713 1.947v8.22h4.367v-8.854c0-1.866-.52-3.326-1.557-4.384-1.038-1.058-2.335-1.587-3.886-1.587zM74.844 76.026c1.495-1.47 2.241-3.274 2.241-5.409 0-2.133-.746-3.936-2.241-5.407-1.496-1.47-3.32-2.207-5.474-2.207-2.153 0-3.979.736-5.472 2.207-1.494 1.47-2.242 3.274-2.242 5.407 0 2.135.748 3.939 2.242 5.41 1.493 1.47 3.319 2.206 5.472 2.206 2.155 0 3.978-.736 5.474-2.207zm-7.86-2.957c-.64-.634-.96-1.45-.96-2.452 0-.999.32-1.816.96-2.45.641-.636 1.437-.953 2.386-.953.952 0 1.748.317 2.388.953.64.634.961 1.451.961 2.45 0 1.001-.321 1.818-.961 2.452-.64.634-1.436.953-2.388.953-.949 0-1.745-.319-2.386-.953zm-11.585 4.76h4.367V56.774h-4.367v21.054zm-2.067-5.48a8.243 8.243 0 0 0 .174-1.73c0-2.174-.705-3.985-2.112-5.438-1.405-1.452-3.168-2.176-5.284-2.176-2.27 0-4.127.724-5.573 2.176-1.446 1.453-2.168 3.264-2.168 5.438 0 2.192.732 4.008 2.197 5.45 1.465 1.442 3.42 2.163 5.866 2.163 2.795 0 4.91-.99 6.347-2.97l-3.493-1.99c-.68.73-1.613 1.095-2.796 1.095-1.825 0-2.99-.672-3.493-2.018h10.335zM42.91 69.117c.426-1.519 1.484-2.279 3.173-2.279 1.629 0 2.658.76 3.086 2.279H42.91zm-5.735 3.23a8.12 8.12 0 0 0 .173-1.73c0-2.173-.702-3.984-2.108-5.437-1.408-1.452-3.169-2.176-5.284-2.176-2.27 0-4.13.724-5.576 2.176-1.446 1.453-2.168 3.264-2.168 5.438 0 2.192.732 4.008 2.198 5.45 1.465 1.442 3.42 2.163 5.866 2.163 2.794 0 4.908-.99 6.346-2.97l-3.493-1.99c-.682.73-1.611 1.095-2.796 1.095-1.824 0-2.99-.672-3.493-2.018h10.335zm-10.422-3.23c.426-1.519 1.486-2.279 3.173-2.279 1.632 0 2.658.76 3.087 2.279h-6.26zm-5.705-2.538v1.73c0 3.02-.946 5.428-2.84 7.227-1.89 1.797-4.292 2.696-7.203 2.696-3.166 0-5.79-1.01-7.876-3.03C1.044 73.185 0 70.705 0 67.762c0-2.94 1.034-5.431 3.1-7.47 2.066-2.038 4.596-3.056 7.584-3.056 1.9 0 3.644.422 5.226 1.268 1.58.846 2.808 1.961 3.683 3.346l-3.96 2.25c-.448-.692-1.11-1.26-1.994-1.702-.882-.442-1.877-.663-2.986-.663-1.725 0-3.156.567-4.291 1.702-1.136 1.134-1.705 2.585-1.705 4.355 0 1.75.582 3.177 1.748 4.283 1.164 1.106 2.716 1.658 4.657 1.658 2.698 0 4.435-1.038 5.212-3.114h-5.445v-4.04h10.219zm100.788-38.193l-2.937-2.91a14.12 14.12 0 0 1-8.093 2.523c-3.775 0-7.324-1.455-9.992-4.099-2.67-2.646-4.14-6.16-4.14-9.9s1.47-7.256 4.14-9.9a14.104 14.104 0 0 1 9.992-4.1c3.774 0 7.322 1.456 9.992 4.1 2.669 2.644 4.139 6.16 4.139 9.9h-4.934a9.014 9.014 0 0 0-2.695-6.443 9.18 9.18 0 0 0-6.502-2.67 9.185 9.185 0 0 0-6.504 2.67A9.014 9.014 0 0 0 101.608 14c0 2.434.957 4.721 2.694 6.442a9.178 9.178 0 0 0 6.504 2.67c1.61 0 3.158-.407 4.523-1.174l-3.208-3.179 3.488-3.456 6.495 6.435h.001l3.22 3.19-3.489 3.458z" fill="#FFF" fill-rule="evenodd"/></svg>