<svg viewBox="0 0 288 142" xmlns="http://www.w3.org/2000/svg" xmlns:xlink="http://www.w3.org/1999/xlink"><defs><path id="a" d="M.073.552h13.48v19.326H.074z"/><path id="c" d="M.134.515h9.735V14.02H.134z"/></defs><g fill="none" fill-rule="evenodd"><path d="M17.13 96.057L10.99 85.43H2.917v10.626H.98V70.142h10.084c2.07 0 3.848.752 5.333 2.258 1.486 1.505 2.23 3.306 2.23 5.405 0 1.752-.53 3.308-1.59 4.665-1.059 1.357-2.404 2.258-4.037 2.703l6.359 10.884h-2.23zM2.916 71.99V83.58h8.147c1.558 0 2.887-.562 3.982-1.684 1.097-1.124 1.644-2.487 1.644-4.091s-.547-2.975-1.644-4.11c-1.095-1.135-2.424-1.704-3.982-1.704H2.917zM36.749 77.545h1.973l-7.892 20.2c-.707 1.825-1.706 3.261-2.996 4.31-1.29 1.048-2.705 1.51-4.238 1.387v-1.738c1.17.096 2.222-.241 3.16-1.018.937-.777 1.7-1.881 2.284-3.311l.4-1-8.401-18.83h1.971l7.381 16.463 6.358-16.463zM44.568 81.174c1.095-2.591 3.129-3.888 6.1-3.888v1.777c-1.728 0-3.178.563-4.348 1.685-1.168 1.124-1.752 2.795-1.752 5.016v10.293H42.74V77.546h1.827v3.628zM57.025 72.64a1.418 1.418 0 0 1-1.022.426c-.39 0-.73-.142-1.022-.426a1.405 1.405 0 0 1-.44-1.056c0-.393.146-.733.44-1.018a1.422 1.422 0 0 1 1.022-.424c.39 0 .73.141 1.022.424.292.285.438.625.438 1.018 0 .422-.146.773-.438 1.056zM55.09 96.057h1.827V77.545H55.09v18.512zM71.494 77.138c2.678 0 4.853.962 6.522 2.888 1.667 1.925 2.503 4.208 2.503 6.849 0 .1-.006.247-.019.445a7.72 7.72 0 0 0-.019.444h-16.55c.219 2.072 1.04 3.745 2.466 5.016 1.424 1.272 3.184 1.907 5.279 1.907 1.462 0 2.74-.309 3.836-.926 1.096-.616 1.924-1.432 2.485-2.444l1.608.963c-.756 1.284-1.827 2.302-3.216 3.056-1.389.752-2.972 1.128-4.75 1.128-2.8 0-5.103-.908-6.905-2.722-1.802-1.814-2.703-4.127-2.703-6.942 0-2.763.882-5.064 2.649-6.904 1.765-1.838 4.036-2.758 6.814-2.758m0 1.777c-2.071 0-3.8.654-5.19 1.963-1.386 1.307-2.179 2.999-2.373 5.072h14.688c-.196-2.196-.97-3.919-2.321-5.165-1.352-1.247-2.954-1.87-4.804-1.87M112.523 96.057l-6.138-10.626h-8.074v10.626h-1.937V70.142h10.084c2.07 0 3.848.752 5.334 2.258 1.486 1.505 2.229 3.306 2.229 5.405 0 1.752-.53 3.308-1.59 4.665-1.059 1.357-2.404 2.258-4.037 2.703l6.359 10.884h-2.23zM98.311 71.99V83.58h8.147c1.558 0 2.887-.562 3.983-1.684 1.096-1.124 1.643-2.487 1.643-4.091s-.547-2.975-1.643-4.11c-1.096-1.135-2.425-1.704-3.983-1.704h-8.147zM126.443 77.138c2.68 0 4.853.962 6.522 2.888 1.667 1.925 2.502 4.208 2.502 6.849 0 .1-.006.247-.018.445a7.72 7.72 0 0 0-.019.444h-16.55c.219 2.072 1.04 3.745 2.467 5.016 1.424 1.272 3.183 1.907 5.279 1.907 1.462 0 2.739-.309 3.836-.926 1.095-.616 1.923-1.432 2.484-2.444l1.608.963c-.757 1.284-1.827 2.302-3.216 3.056-1.387.752-2.972 1.128-4.75 1.128-2.8 0-5.101-.908-6.905-2.722-1.802-1.814-2.703-4.127-2.703-6.942 0-2.763.882-5.064 2.648-6.904 1.767-1.838 4.038-2.758 6.815-2.758m0 1.777c-2.071 0-3.8.654-5.188 1.963-1.389 1.307-2.181 2.999-2.375 5.072h14.687c-.195-2.196-.968-3.919-2.32-5.165-1.35-1.247-2.954-1.87-4.804-1.87M140.984 82.395c0 .914.378 1.63 1.133 2.147.755.52 1.674.908 2.757 1.167a66.62 66.62 0 0 1 3.27.87c1.098.321 2.022.857 2.779 1.611.753.753 1.13 1.758 1.13 3.017 0 1.53-.602 2.789-1.808 3.776-1.204.987-2.782 1.481-4.73 1.481-1.755 0-3.234-.376-4.44-1.13-1.205-.752-2.04-1.745-2.502-2.98l1.57-.924c.342 1.011.98 1.807 1.918 2.387.938.58 2.09.869 3.453.869 1.364 0 2.49-.302 3.381-.906.889-.605 1.333-1.463 1.333-2.573 0-.914-.377-1.641-1.133-2.185-.756-.543-1.68-.944-2.776-1.203a59.946 59.946 0 0 1-3.27-.87c-1.085-.321-2.004-.851-2.76-1.59-.754-.742-1.132-1.73-1.132-2.964 0-1.481.578-2.726 1.735-3.74 1.158-1.011 2.65-1.517 4.476-1.517 1.462 0 2.735.333 3.818 1a6.017 6.017 0 0 1 2.394 2.703l-1.535.888a4.065 4.065 0 0 0-1.827-2.091c-.853-.482-1.802-.723-2.85-.723-1.243 0-2.282.316-3.122.944-.84.63-1.262 1.475-1.262 2.536M158.96 72.64a1.421 1.421 0 0 1-1.023.426c-.39 0-.73-.142-1.023-.426a1.41 1.41 0 0 1-.44-1.056c0-.393.148-.733.44-1.018a1.422 1.422 0 0 1 1.023-.424c.39 0 .731.141 1.024.424.292.285.438.625.438 1.018 0 .422-.146.773-.438 1.056zm-1.937 23.417h1.827V77.545h-1.827v18.512zM181.32 70.141h1.827v25.915h-1.827v-4.295a8.576 8.576 0 0 1-3.197 3.445c-1.377.84-2.929 1.257-4.658 1.257-2.63 0-4.866-.93-6.705-2.794-1.84-1.863-2.758-4.152-2.758-6.868 0-2.715.918-5.003 2.758-6.867 1.84-1.864 4.075-2.796 6.705-2.796 1.73 0 3.281.42 4.658 1.259a8.581 8.581 0 0 1 3.197 3.443V70.14zm-13.244 22.25c1.497 1.531 3.33 2.296 5.5 2.296 2.167 0 3.998-.765 5.498-2.296 1.497-1.53 2.246-3.393 2.246-5.59 0-2.196-.749-4.06-2.246-5.59-1.5-1.53-3.331-2.295-5.499-2.295-2.168 0-4.002.765-5.5 2.294-1.497 1.531-2.246 3.395-2.246 5.591 0 2.197.749 4.06 2.247 5.59zM197.725 77.138c2.678 0 4.853.962 6.522 2.888 1.667 1.925 2.503 4.208 2.503 6.849 0 .1-.007.247-.02.445a7.72 7.72 0 0 0-.018.444h-16.55c.219 2.072 1.04 3.745 2.465 5.016 1.425 1.272 3.185 1.907 5.28 1.907 1.461 0 2.74-.309 3.835-.926 1.097-.616 1.925-1.432 2.486-2.444l1.608.963c-.757 1.284-1.827 2.302-3.216 3.056-1.389.752-2.972 1.128-4.75 1.128-2.8 0-5.103-.908-6.905-2.722-1.802-1.814-2.703-4.127-2.703-6.942 0-2.763.882-5.064 2.649-6.904 1.765-1.838 4.036-2.758 6.814-2.758m0 1.777c-2.071 0-3.8.654-5.19 1.963-1.387 1.307-2.179 2.999-2.373 5.072h14.688c-.196-2.196-.968-3.919-2.322-5.165-1.351-1.247-2.953-1.87-4.803-1.87M220.121 77.138c2.168 0 3.89.673 5.17 2.018 1.28 1.346 1.918 3.141 1.918 5.386v11.515h-1.863V84.542c0-1.727-.469-3.097-1.406-4.108-.938-1.012-2.26-1.52-3.965-1.52-1.876 0-3.411.63-4.604 1.89-1.194 1.259-1.789 3.085-1.789 5.479v9.774h-1.828V77.545h1.828v3.518c1.315-2.616 3.494-3.925 6.54-3.925M241.458 96.464c-2.752 0-5.042-.925-6.869-2.776-1.827-1.852-2.74-4.147-2.74-6.888 0-2.739.913-5.034 2.74-6.884 1.827-1.851 4.117-2.778 6.869-2.778 1.777 0 3.385.426 4.822 1.278 1.437.852 2.486 2.005 3.143 3.461l-1.498.888c-.537-1.184-1.384-2.122-2.54-2.813-1.157-.69-2.467-1.037-3.927-1.037-2.193 0-4.032.76-5.517 2.277-1.487 1.519-2.23 3.387-2.23 5.608 0 2.223.743 4.091 2.23 5.61 1.485 1.517 3.324 2.277 5.517 2.277 1.46 0 2.77-.345 3.927-1.037a6.901 6.901 0 0 0 2.649-2.813l1.535.925c-.732 1.431-1.82 2.572-3.27 3.424-1.45.852-3.064 1.278-4.841 1.278M262.356 77.138c2.679 0 4.854.962 6.522 2.888 1.667 1.925 2.503 4.208 2.503 6.849 0 .1-.006.247-.019.445a7.72 7.72 0 0 0-.018.444h-16.55c.218 2.072 1.04 3.745 2.465 5.016 1.424 1.272 3.185 1.907 5.28 1.907 1.46 0 2.74-.309 3.836-.926 1.096-.616 1.924-1.432 2.485-2.444l1.608.963c-.757 1.284-1.827 2.302-3.216 3.056-1.39.752-2.972 1.128-4.75 1.128-2.8 0-5.103-.908-6.906-2.722-1.802-1.814-2.703-4.127-2.703-6.942 0-2.763.883-5.064 2.65-6.904 1.764-1.838 4.035-2.758 6.813-2.758m0 1.777c-2.07 0-3.8.654-5.189 1.963-1.387 1.307-2.18 2.999-2.374 5.072h14.688c-.196-2.196-.968-3.919-2.321-5.165-1.352-1.247-2.953-1.87-4.804-1.87" fill="#000"/><g transform="translate(274.413 76.586)"><mask id="b" fill="#fff"><use xlink:href="#a"/></mask><path d="M2.484 5.81c0 .913.378 1.628 1.133 2.146.755.519 1.675.908 2.758 1.167 1.084.258 2.175.549 3.27.87 1.095.32 2.021.857 2.776 1.611.755.752 1.133 1.758 1.133 3.017 0 1.53-.603 2.789-1.809 3.776-1.205.987-2.782 1.481-4.73 1.481-1.754 0-3.235-.376-4.439-1.13-1.206-.752-2.041-1.746-2.503-2.98l1.57-.925c.341 1.012.981 1.808 1.918 2.388.938.58 2.09.869 3.454.869 1.364 0 2.49-.302 3.379-.906.888-.605 1.334-1.463 1.334-2.573 0-.914-.377-1.641-1.132-2.185-.757-.543-1.681-.944-2.778-1.203a60.27 60.27 0 0 1-3.269-.87c-1.084-.321-2.004-.851-2.76-1.591C1.036 8.03.658 7.043.658 5.809c0-1.481.578-2.726 1.736-3.74C3.55 1.057 5.042.552 6.869.552c1.46 0 2.734.333 3.817 1a6.013 6.013 0 0 1 2.392 2.703l-1.533.887a4.065 4.065 0 0 0-1.827-2.09c-.853-.482-1.802-.723-2.85-.723-1.242 0-2.283.315-3.122.943-.842.63-1.262 1.476-1.262 2.537" fill="#000" mask="url(#b)"/></g><path d="M87.725 131.949c0 3.74-2.612 6.22-6.284 6.22-4.001 0-6.85-3.018-6.85-6.72 0-3.758 2.886-6.756 6.703-6.756 2.43 0 4.493 1.24 5.572 3.017l-2.155 1.26c-.584-1.038-1.882-1.796-3.434-1.796-2.43 0-4.183 1.814-4.183 4.274 0 2.408 1.698 4.222 4.365 4.222 2.009 0 3.288-.982 3.727-2.462h-3.873v-2.258h6.412v.999zM93.608 136.003c.913 0 1.643-.388 2.046-.925l1.9 1.11c-.86 1.26-2.23 1.98-3.982 1.98-3.07 0-5.006-2.128-5.006-4.885 0-2.76 1.955-4.889 4.821-4.889 2.705 0 4.622 2.167 4.622 4.889 0 .351-.036.665-.09.98h-6.887c.33 1.223 1.333 1.74 2.576 1.74zm2.046-3.59c-.294-1.334-1.279-1.87-2.267-1.87-1.26 0-2.117.684-2.392 1.87h4.659zM103.782 136.003c.913 0 1.645-.388 2.046-.925l1.9 1.11c-.86 1.26-2.23 1.98-3.982 1.98-3.07 0-5.006-2.128-5.006-4.885 0-2.76 1.955-4.889 4.823-4.889 2.703 0 4.62 2.167 4.62 4.889 0 .351-.034.665-.09.98h-6.887c.33 1.223 1.335 1.74 2.576 1.74zm2.046-3.59c-.292-1.334-1.279-1.87-2.265-1.87-1.26 0-2.12.684-2.393 1.87h4.658zM109.073 138.138h2.5v-13.74h-2.5z" fill="#000"/><g><path d="M113.117 133.272c0-2.766 2.13-4.898 4.804-4.898 2.676 0 4.823 2.132 4.823 4.898 0 2.763-2.147 4.897-4.823 4.897-2.674 0-4.804-2.134-4.804-4.897m7.279 0c0-1.504-1.073-2.562-2.475-2.562-1.383 0-2.456 1.058-2.456 2.562 0 1.501 1.073 2.56 2.456 2.56 1.402 0 2.475-1.059 2.475-2.56M132.534 132.214v5.695h-2.347v-5.398c0-1.261-.746-1.911-1.802-1.911-1.145 0-2 .687-2 2.3v5.01h-2.349v-9.276h2.348v1.04c.545-.836 1.492-1.3 2.712-1.3 1.928 0 3.438 1.372 3.438 3.84" fill="#000"/><g transform="translate(133.566 127.859)"><mask id="d" fill="#fff"><use xlink:href="#c"/></mask><path d="M9.869.775v8.83c0 3.042-2.347 4.416-4.749 4.416-1.948 0-3.513-.762-4.313-2.263l2.001-1.169c.383.723.983 1.298 2.385 1.298 1.474 0 2.384-.816 2.384-2.282V8.603c-.638.872-1.62 1.41-2.912 1.41-2.584 0-4.531-2.133-4.531-4.749 0-2.596 1.947-4.75 4.531-4.75 1.293 0 2.274.54 2.912 1.41V.774h2.292zm-2.292 4.49c0-1.467-1.075-2.524-2.548-2.524-1.475 0-2.547 1.057-2.547 2.523 0 1.484 1.072 2.541 2.547 2.541 1.473 0 2.548-1.057 2.548-2.54z" fill="#000" mask="url(#d)"/></g><path d="M160.576 135.794l1.31 1.391-1.782 1.614-1.384-1.466a6.442 6.442 0 0 1-3.203.835c-3.657 0-6.605-2.967-6.605-6.751 0-3.804 2.948-6.753 6.605-6.753 3.658 0 6.624 2.949 6.624 6.753 0 1.687-.582 3.209-1.565 4.377m-3.638-.37l-2.094-2.227 1.784-1.614 2.238 2.375c.473-.686.764-1.558.764-2.541 0-2.505-1.82-4.267-4.113-4.267-2.292 0-4.112 1.762-4.112 4.267 0 2.485 1.82 4.248 4.112 4.248.492 0 .983-.093 1.42-.241M171.968 128.633v9.276h-2.348v-1.04c-.546.836-1.492 1.3-2.711 1.3-1.929 0-3.44-1.373-3.44-3.84v-5.696h2.347v5.398c0 1.262.748 1.912 1.803 1.912 1.147 0 2.001-.687 2.001-2.301v-5.009h2.348zM183.014 128.633v9.276h-2.348v-1.094c-.655.835-1.637 1.354-2.967 1.354-2.419 0-4.421-2.134-4.421-4.898s2.002-4.898 4.421-4.898c1.33 0 2.312.52 2.967 1.356v-1.096h2.348zm-2.348 4.638c0-1.558-1.073-2.616-2.529-2.616-1.438 0-2.512 1.058-2.512 2.616s1.074 2.616 2.512 2.616c1.456 0 2.529-1.058 2.529-2.616zM189.893 128.448v2.672c-1.22-.148-2.766.408-2.766 2.355v4.434h-2.348v-9.276h2.348v1.595c.474-1.261 1.619-1.78 2.766-1.78M194.296 130.934v3.859c0 1.001.709 1.02 2.057.945v2.172c-3.294.37-4.405-.614-4.405-3.117v-3.859h-1.583v-2.3h1.583v-1.873l2.348-.725v2.597h2.057v2.301h-2.057zM201.921 135.999c.91 0 1.638-.39 2.039-.927l1.892 1.112c-.855 1.262-2.22 1.985-3.966 1.985-3.058 0-4.987-2.133-4.987-4.897 0-2.765 1.947-4.9 4.803-4.9 2.694 0 4.604 2.173 4.604 4.9 0 .352-.036.667-.09.983h-6.86c.328 1.225 1.327 1.744 2.565 1.744zm2.039-3.6c-.293-1.336-1.274-1.873-2.258-1.873-1.255 0-2.11.685-2.384 1.874h4.642zM212.694 128.448v2.672c-1.22-.148-2.766.408-2.766 2.355v4.434h-2.348v-9.276h2.348v1.595c.474-1.261 1.619-1.78 2.766-1.78M160.73 31.043l-3.86-3.937h-.002l-7.805-7.955-4.215 4.23 3.897 3.973a10.805 10.805 0 0 1-5.425 1.449c-2.945 0-5.714-1.17-7.798-3.295-2.083-2.123-3.23-4.946-3.23-7.95 0-3.002 1.147-5.824 3.23-7.95 2.084-2.123 4.853-3.293 7.798-3.293 2.947 0 5.714 1.17 7.797 3.294 2.085 2.125 3.232 4.947 3.232 7.95h5.916c0-4.613-1.763-8.952-4.963-12.216C152.1 2.081 147.847.285 143.32.285c-4.527 0-8.781 1.796-11.982 5.058-3.2 3.264-4.963 7.603-4.963 12.215 0 4.616 1.763 8.952 4.963 12.217 3.2 3.262 7.455 5.057 11.982 5.057 3.524 0 6.88-1.092 9.705-3.113l3.523 3.591 4.183-4.267z" fill="#000"/></g></g></svg>