<svg xmlns="http://www.w3.org/2000/svg" viewBox="0 0 318.188 318.188"><g fill="#5e5e5e"><path d="M283.149 52.722L232.625 2.197A7.5 7.5 0 0 0 227.321 0H40.342a7.5 7.5 0 0 0-7.5 7.5v303.188a7.5 7.5 0 0 0 7.5 7.5h237.504a7.5 7.5 0 0 0 7.5-7.5V58.025c0-1.989-.79-3.896-2.197-5.303zm-48.328-27.115l24.918 24.919h-24.918V25.607zM47.842 15h171.98v10.263H47.842V15zm222.504 288.188H47.842V40.263h171.98v17.763a7.5 7.5 0 0 0 7.5 7.5h43.024v237.662z"/><path d="M106.89 233.392H90.284v47.979h15.522c7.985 0 14.183-2.166 18.591-6.498 4.408-4.332 6.613-10.501 6.613-18.509 0-7.438-2.096-13.127-6.285-17.065-4.189-3.938-10.134-5.907-17.835-5.907zm7.908 33.917c-1.837 2.287-4.725 3.43-8.663 3.43h-2.888v-26.877h3.773c3.545 0 6.187 1.061 7.926 3.183 1.739 2.123 2.609 5.382 2.609 9.78.001 4.703-.919 8.198-2.757 10.484zM161.235 232.637c-7.613 0-13.418 2.106-17.41 6.317-3.992 4.212-5.988 10.31-5.988 18.295 0 8.073 2.006 14.222 6.021 18.444 4.014 4.223 9.785 6.333 17.311 6.333 7.637 0 13.434-2.1 17.395-6.301 3.959-4.201 5.939-10.337 5.939-18.411 0-8.095-1.969-14.232-5.906-18.411-3.94-4.176-9.727-6.266-17.362-6.266zm7.237 35.213c-1.586 2.254-4.02 3.38-7.303 3.38-6.453 0-9.68-4.638-9.68-13.914 0-9.364 3.248-14.046 9.746-14.046 3.193 0 5.596 1.144 7.203 3.429 1.607 2.287 2.412 5.825 2.412 10.617.001 4.77-.792 8.281-2.378 10.534zM105.792 189.204h105.111a7.5 7.5 0 0 0 7.5-7.5V76.594a7.5 7.5 0 0 0-7.5-7.5H105.792a7.5 7.5 0 0 0-7.5 7.5v105.11a7.5 7.5 0 0 0 7.5 7.5zm7.499-105.11h90.112v14.031h-9.81l-13.978 35.15c-3.782 9.78-5.828 15.1-6.135 15.961a90.827 90.827 0 0 0 1.199-14.577V98.125H159.18l-15.453 35.612-4.337 10.702-1.845 4.797c.584-3.321.969-9.087 1.153-17.298l.461-33.813h-17.067l2.26 67.441h20.021l11.671-27.447c2.613-6.643 4.428-12.009 5.443-16.099-.4 5.197-.6 10.18-.6 14.946v28.6h21.265l21.25-48.925v57.563h-90.111v-90.11zM214.531 243.335c2.034 0 3.938.285 5.71.854a44.662 44.662 0 0 1 5.316 2.1l3.971-10.206c-4.726-2.253-9.681-3.38-14.866-3.38-4.748 0-8.877 1.012-12.389 3.036-3.512 2.024-6.202 4.918-8.073 8.68-1.87 3.763-2.806 8.128-2.806 13.094 0 7.942 1.931 14.013 5.792 18.214 3.861 4.201 9.413 6.301 16.655 6.301 5.054 0 9.583-.886 13.586-2.658v-10.961a61.73 61.73 0 0 1-6.005 2.133c-1.991.59-4.048.886-6.17.886-7.023 0-10.534-4.616-10.534-13.849 0-4.441.863-7.925 2.592-10.452 1.729-2.528 4.136-3.792 7.221-3.792z"/></g></svg>